<svg xmlns="http://www.w3.org/2000/svg" xmlns:xlink="http://www.w3.org/1999/xlink" width="1080" zoomAndPan="magnify" viewBox="0 0 810 809.999993" height="1080" preserveAspectRatio="xMidYMid meet" version="1.0"><defs><clipPath id="2683dc37bb"><path d="M 45.601562 282.476562 L 257 282.476562 L 257 491 L 45.601562 491 Z M 45.601562 282.476562 " clip-rule="nonzero"/></clipPath><clipPath id="5035637341"><path d="M 583 440 L 764.101562 440 L 764.101562 495 L 583 495 Z M 583 440 " clip-rule="nonzero"/></clipPath><clipPath id="906a8adb68"><path d="M 525 510 L 731 510 L 731 527.726562 L 525 527.726562 Z M 525 510 " clip-rule="nonzero"/></clipPath></defs><rect x="-81" width="972" fill="#ffffff" y="-80.999999" height="971.999992" fill-opacity="1"/><rect x="-81" width="972" fill="#acd58b" y="-80.999999" height="971.999992" fill-opacity="1"/><path fill="#42824f" d="M 160.542969 433.179688 L 155.015625 433.179688 L 152.226562 426.378906 L 136.273438 420.007812 L 116.832031 428.074219 L 96.597656 420.027344 C 96.203125 420.273438 95.800781 420.5 95.382812 420.703125 C 94.964844 420.90625 94.535156 421.085938 94.097656 421.242188 C 93.660156 421.398438 93.214844 421.53125 92.765625 421.640625 C 92.3125 421.746094 91.855469 421.832031 91.394531 421.886719 C 90.933594 421.945312 90.46875 421.980469 90.007812 421.988281 C 89.542969 421.996094 89.078125 421.976562 88.617188 421.933594 C 88.152344 421.890625 87.695312 421.824219 87.238281 421.730469 C 86.785156 421.636719 86.335938 421.519531 85.890625 421.378906 C 85.449219 421.234375 85.015625 421.070312 84.59375 420.878906 C 84.167969 420.691406 83.753906 420.480469 83.351562 420.242188 C 82.953125 420.007812 82.566406 419.753906 82.191406 419.476562 C 81.816406 419.199219 81.460938 418.902344 81.121094 418.585938 C 80.777344 418.273438 80.457031 417.9375 80.152344 417.585938 C 79.847656 417.234375 79.5625 416.871094 79.296875 416.488281 C 79.03125 416.105469 78.789062 415.710938 78.566406 415.300781 C 78.34375 414.890625 78.144531 414.472656 77.96875 414.042969 C 77.648438 413.261719 77.410156 412.457031 77.246094 411.628906 C 77.085938 410.800781 77.003906 409.960938 77.003906 409.117188 C 77.007812 408.273438 77.089844 407.4375 77.253906 406.609375 C 77.421875 405.78125 77.664062 404.976562 77.988281 404.199219 C 78.3125 403.417969 78.707031 402.675781 79.175781 401.976562 C 79.640625 401.273438 80.175781 400.625 80.769531 400.027344 C 81.367188 399.429688 82.011719 398.894531 82.714844 398.421875 C 83.414062 397.953125 84.152344 397.554688 84.929688 397.230469 C 85.558594 396.96875 86.203125 396.757812 86.867188 396.597656 C 87.527344 396.4375 88.199219 396.332031 88.878906 396.28125 C 89.558594 396.230469 90.234375 396.230469 90.914062 396.289062 C 91.59375 396.34375 92.261719 396.453125 92.925781 396.617188 C 93.585938 396.78125 94.230469 396.996094 94.855469 397.261719 C 95.484375 397.527344 96.085938 397.84375 96.664062 398.203125 C 97.238281 398.566406 97.785156 398.972656 98.296875 399.421875 C 98.808594 399.871094 99.28125 400.355469 99.71875 400.882812 C 100.152344 401.40625 100.542969 401.960938 100.890625 402.546875 C 101.234375 403.136719 101.535156 403.746094 101.785156 404.378906 C 102.03125 405.015625 102.230469 405.664062 102.375 406.332031 C 102.523438 406.996094 102.613281 407.671875 102.652344 408.351562 C 102.691406 409.03125 102.675781 409.710938 102.605469 410.390625 C 102.539062 411.066406 102.414062 411.734375 102.238281 412.394531 C 102.0625 413.054688 101.835938 413.695312 101.558594 414.316406 C 101.28125 414.9375 100.953125 415.535156 100.582031 416.105469 L 116.816406 422.554688 L 129.5 417.308594 L 123.464844 414.875 L 119.480469 405.195312 L 101.882812 400.589844 L 90.429688 372.753906 C 89.855469 372.832031 89.28125 372.859375 88.703125 372.839844 C 88.125 372.824219 87.550781 372.757812 86.984375 372.644531 C 86.414062 372.53125 85.863281 372.375 85.320312 372.171875 C 84.777344 371.964844 84.257812 371.71875 83.757812 371.429688 C 83.253906 371.140625 82.78125 370.8125 82.335938 370.445312 C 81.886719 370.074219 81.472656 369.675781 81.09375 369.238281 C 80.710938 368.800781 80.367188 368.339844 80.0625 367.84375 C 79.757812 367.351562 79.496094 366.839844 79.277344 366.304688 C 79.011719 365.660156 78.8125 364.996094 78.679688 364.3125 C 78.546875 363.632812 78.480469 362.941406 78.480469 362.246094 C 78.480469 361.550781 78.550781 360.863281 78.6875 360.179688 C 78.824219 359.496094 79.027344 358.835938 79.292969 358.191406 C 79.5625 357.550781 79.886719 356.941406 80.273438 356.363281 C 80.660156 355.785156 81.101562 355.25 81.59375 354.757812 C 82.085938 354.265625 82.621094 353.828125 83.199219 353.441406 C 83.777344 353.054688 84.386719 352.730469 85.027344 352.464844 C 85.667969 352.195312 86.328125 351.996094 87.007812 351.859375 C 87.6875 351.722656 88.375 351.65625 89.070312 351.652344 C 89.761719 351.652344 90.449219 351.722656 91.128906 351.855469 C 91.808594 351.992188 92.46875 352.195312 93.109375 352.460938 C 93.75 352.726562 94.359375 353.050781 94.933594 353.4375 C 95.507812 353.824219 96.042969 354.265625 96.53125 354.757812 C 97.019531 355.25 97.457031 355.785156 97.839844 356.363281 C 98.222656 356.941406 98.546875 357.550781 98.808594 358.195312 C 99.035156 358.742188 99.214844 359.308594 99.347656 359.890625 C 99.476562 360.46875 99.558594 361.054688 99.59375 361.648438 C 99.625 362.242188 99.609375 362.835938 99.542969 363.425781 C 99.476562 364.015625 99.359375 364.597656 99.195312 365.171875 C 99.035156 365.742188 98.824219 366.296875 98.566406 366.832031 C 98.308594 367.367188 98.011719 367.878906 97.667969 368.367188 C 97.328125 368.851562 96.945312 369.304688 96.527344 369.726562 C 96.109375 370.152344 95.660156 370.535156 95.175781 370.882812 L 105.617188 396.300781 L 117.042969 399.292969 L 111.59375 386.03125 C 111.003906 386.117188 110.410156 386.152344 109.8125 386.140625 C 109.21875 386.128906 108.625 386.066406 108.042969 385.953125 C 107.457031 385.84375 106.882812 385.683594 106.324219 385.480469 C 105.765625 385.273438 105.226562 385.023438 104.707031 384.726562 C 104.191406 384.429688 103.703125 384.09375 103.238281 383.714844 C 102.777344 383.339844 102.351562 382.925781 101.957031 382.476562 C 101.5625 382.027344 101.210938 381.550781 100.898438 381.042969 C 100.582031 380.535156 100.3125 380.003906 100.089844 379.453125 C 99.816406 378.796875 99.613281 378.117188 99.476562 377.421875 C 99.335938 376.722656 99.269531 376.019531 99.269531 375.308594 C 99.269531 374.597656 99.339844 373.894531 99.480469 373.195312 C 99.617188 372.5 99.824219 371.824219 100.09375 371.167969 C 100.367188 370.511719 100.703125 369.886719 101.097656 369.296875 C 101.492188 368.703125 101.9375 368.160156 102.441406 367.65625 C 102.945312 367.152344 103.488281 366.703125 104.082031 366.308594 C 104.671875 365.914062 105.292969 365.582031 105.949219 365.308594 C 106.605469 365.039062 107.277344 364.832031 107.972656 364.691406 C 108.667969 364.550781 109.371094 364.480469 110.078125 364.480469 C 110.789062 364.480469 111.488281 364.550781 112.183594 364.6875 C 112.878906 364.828125 113.554688 365.03125 114.210938 365.304688 C 114.863281 365.578125 115.484375 365.910156 116.074219 366.304688 C 116.664062 366.703125 117.207031 367.152344 117.707031 367.652344 C 118.207031 368.15625 118.652344 368.703125 119.042969 369.296875 C 119.4375 369.886719 119.765625 370.511719 120.035156 371.167969 C 120.265625 371.730469 120.445312 372.304688 120.582031 372.898438 C 120.714844 373.492188 120.796875 374.089844 120.832031 374.695312 C 120.863281 375.304688 120.847656 375.90625 120.777344 376.511719 C 120.710938 377.113281 120.59375 377.707031 120.425781 378.292969 C 120.257812 378.875 120.042969 379.441406 119.78125 379.988281 C 119.519531 380.535156 119.214844 381.058594 118.867188 381.554688 C 118.515625 382.050781 118.128906 382.515625 117.703125 382.945312 C 117.277344 383.378906 116.816406 383.769531 116.324219 384.125 L 127.332031 410.921875 L 156.148438 422.425781 L 160.558594 433.164062 Z M 222.105469 388.320312 C 221.210938 388.695312 220.285156 388.964844 219.324219 389.125 C 218.367188 389.28125 217.40625 389.332031 216.4375 389.265625 C 215.46875 389.199219 214.519531 389.023438 213.59375 388.738281 C 212.667969 388.449219 211.785156 388.058594 210.949219 387.566406 L 191.027344 411.417969 L 176.992188 417.257812 L 176.113281 418.730469 L 182.058594 433.160156 L 176.546875 433.160156 L 170.421875 418.296875 L 178.726562 404.203125 L 169.550781 381.933594 L 180.046875 364.976562 L 176.304688 355.902344 C 175.722656 355.992188 175.132812 356.035156 174.542969 356.027344 C 173.953125 356.019531 173.363281 355.964844 172.785156 355.859375 C 172.203125 355.753906 171.632812 355.601562 171.078125 355.398438 C 170.519531 355.199219 169.984375 354.953125 169.46875 354.664062 C 168.953125 354.375 168.46875 354.042969 168.007812 353.671875 C 167.546875 353.300781 167.121094 352.890625 166.730469 352.449219 C 166.335938 352.007812 165.984375 351.535156 165.671875 351.03125 C 165.359375 350.53125 165.089844 350.007812 164.863281 349.460938 C 164.597656 348.8125 164.398438 348.144531 164.261719 347.457031 C 164.128906 346.769531 164.0625 346.078125 164.0625 345.378906 C 164.066406 344.679688 164.136719 343.984375 164.273438 343.300781 C 164.410156 342.613281 164.613281 341.949219 164.882812 341.300781 C 165.152344 340.65625 165.480469 340.042969 165.867188 339.460938 C 166.257812 338.878906 166.699219 338.339844 167.191406 337.847656 C 167.6875 337.351562 168.226562 336.910156 168.808594 336.523438 C 169.386719 336.132812 170 335.804688 170.648438 335.535156 C 171.292969 335.269531 171.957031 335.066406 172.640625 334.929688 C 173.324219 334.792969 174.015625 334.726562 174.710938 334.726562 C 175.410156 334.726562 176.101562 334.796875 176.785156 334.933594 C 177.46875 335.070312 178.132812 335.273438 178.777344 335.539062 C 179.421875 335.808594 180.03125 336.136719 180.613281 336.527344 C 181.191406 336.917969 181.726562 337.359375 182.21875 337.855469 C 182.710938 338.347656 183.148438 338.886719 183.535156 339.46875 C 183.921875 340.050781 184.246094 340.667969 184.511719 341.3125 C 184.734375 341.855469 184.910156 342.414062 185.042969 342.988281 C 185.171875 343.5625 185.253906 344.144531 185.289062 344.730469 C 185.324219 345.316406 185.3125 345.902344 185.25 346.488281 C 185.1875 347.074219 185.078125 347.648438 184.921875 348.214844 C 184.765625 348.78125 184.5625 349.332031 184.316406 349.867188 C 184.066406 350.398438 183.777344 350.910156 183.445312 351.394531 C 183.113281 351.878906 182.746094 352.335938 182.335938 352.757812 C 181.929688 353.183594 181.492188 353.570312 181.019531 353.921875 L 185.753906 365.457031 L 175.269531 382.378906 L 181.964844 398.683594 L 201.960938 364.65625 L 191.414062 338.960938 C 190.875 339.027344 190.335938 339.050781 189.796875 339.03125 C 189.253906 339.007812 188.71875 338.941406 188.1875 338.832031 C 187.660156 338.722656 187.140625 338.574219 186.632812 338.378906 C 186.128906 338.183594 185.640625 337.949219 185.175781 337.675781 C 184.707031 337.402344 184.265625 337.09375 183.847656 336.75 C 183.429688 336.402344 183.042969 336.027344 182.6875 335.617188 C 182.332031 335.207031 182.011719 334.773438 181.726562 334.3125 C 181.441406 333.851562 181.199219 333.371094 180.992188 332.867188 C 180.742188 332.261719 180.558594 331.636719 180.429688 330.992188 C 180.304688 330.347656 180.246094 329.699219 180.246094 329.042969 C 180.246094 328.386719 180.3125 327.738281 180.441406 327.09375 C 180.570312 326.453125 180.761719 325.828125 181.011719 325.222656 C 181.265625 324.617188 181.570312 324.042969 181.9375 323.496094 C 182.300781 322.949219 182.714844 322.445312 183.175781 321.980469 C 183.636719 321.519531 184.140625 321.105469 184.6875 320.738281 C 185.230469 320.375 185.804688 320.066406 186.410156 319.8125 C 187.011719 319.558594 187.636719 319.367188 188.277344 319.238281 C 188.917969 319.109375 189.566406 319.042969 190.222656 319.042969 C 190.875 319.042969 191.523438 319.105469 192.167969 319.230469 C 192.808594 319.359375 193.433594 319.546875 194.039062 319.796875 C 194.640625 320.050781 195.214844 320.355469 195.761719 320.722656 C 196.304688 321.085938 196.808594 321.5 197.269531 321.960938 C 197.734375 322.425781 198.144531 322.929688 198.507812 323.476562 C 198.871094 324.023438 199.179688 324.597656 199.425781 325.203125 C 199.636719 325.714844 199.800781 326.242188 199.925781 326.78125 C 200.046875 327.324219 200.125 327.871094 200.15625 328.421875 C 200.1875 328.976562 200.175781 329.527344 200.117188 330.078125 C 200.058594 330.628906 199.953125 331.171875 199.804688 331.703125 C 199.660156 332.238281 199.46875 332.753906 199.234375 333.257812 C 199 333.757812 198.726562 334.238281 198.414062 334.695312 C 198.101562 335.152344 197.753906 335.578125 197.371094 335.980469 C 196.984375 336.378906 196.574219 336.742188 196.128906 337.074219 L 207.648438 365.089844 L 181.292969 409.929688 L 187.921875 407.164062 L 207.121094 384.058594 C 206.84375 383.675781 206.589844 383.273438 206.359375 382.859375 C 206.125 382.445312 205.917969 382.019531 205.734375 381.582031 C 205.550781 381.144531 205.390625 380.699219 205.257812 380.246094 C 205.125 379.789062 205.015625 379.328125 204.933594 378.859375 C 204.851562 378.390625 204.796875 377.921875 204.765625 377.449219 C 204.738281 376.972656 204.734375 376.5 204.761719 376.027344 C 204.785156 375.550781 204.835938 375.082031 204.914062 374.613281 C 204.992188 374.144531 205.09375 373.679688 205.222656 373.226562 C 205.351562 372.769531 205.507812 372.320312 205.6875 371.882812 C 205.867188 371.441406 206.070312 371.015625 206.300781 370.597656 C 206.527344 370.179688 206.777344 369.78125 207.050781 369.390625 C 207.324219 369.003906 207.617188 368.632812 207.933594 368.277344 C 208.25 367.921875 208.582031 367.585938 208.933594 367.269531 C 209.289062 366.953125 209.65625 366.65625 210.042969 366.378906 C 210.429688 366.105469 210.832031 365.851562 211.246094 365.621094 C 211.660156 365.390625 212.085938 365.1875 212.523438 365.003906 C 213.285156 364.6875 214.074219 364.449219 214.882812 364.289062 C 215.691406 364.128906 216.511719 364.046875 217.335938 364.046875 C 218.160156 364.050781 218.980469 364.128906 219.789062 364.292969 C 220.597656 364.453125 221.382812 364.695312 222.148438 365.011719 C 222.910156 365.328125 223.632812 365.71875 224.320312 366.179688 C 225.003906 366.640625 225.640625 367.160156 226.222656 367.746094 C 226.804688 368.332031 227.324219 368.96875 227.78125 369.660156 C 228.238281 370.347656 228.625 371.074219 228.9375 371.839844 C 229.253906 372.601562 229.492188 373.390625 229.648438 374.203125 C 229.808594 375.015625 229.890625 375.835938 229.886719 376.664062 C 229.886719 377.492188 229.804688 378.3125 229.640625 379.121094 C 229.480469 379.933594 229.242188 380.722656 228.921875 381.484375 C 228.605469 382.25 228.21875 382.976562 227.757812 383.664062 C 227.296875 384.351562 226.773438 384.988281 226.191406 385.574219 C 225.605469 386.15625 224.96875 386.679688 224.28125 387.140625 C 223.59375 387.597656 222.867188 387.984375 222.105469 388.300781 Z M 222.105469 388.320312 " fill-opacity="1" fill-rule="nonzero"/><path fill="#42824f" d="M 223.390625 433.175781 L 217.976562 433.175781 C 233.050781 411.308594 237.164062 382.460938 226.324219 356.113281 C 209.355469 314.839844 162.046875 295.171875 120.867188 312.273438 C 79.675781 329.394531 59.996094 376.878906 76.964844 418.152344 C 86.144531 440.503906 104.214844 456.519531 125.40625 463.78125 L 124.726562 468.339844 C 102.015625 460.789062 82.589844 443.769531 72.773438 419.898438 C 54.847656 376.300781 75.660156 326.148438 119.148438 308.085938 C 162.617188 290.023438 212.59375 310.789062 230.515625 354.367188 C 241.542969 381.183594 237.925781 410.445312 223.394531 433.175781 Z M 223.390625 433.175781 " fill-opacity="1" fill-rule="nonzero"/><path fill="#ffffff" d="M 235.871094 433.175781 L 230.042969 433.175781 C 243.9375 409.355469 247 379.546875 235.746094 352.195312 C 216.621094 305.703125 163.347656 283.558594 116.976562 302.832031 C 70.605469 322.117188 48.421875 375.582031 67.53125 422.074219 C 78.15625 447.894531 99.292969 466.164062 123.875 474.039062 L 123.128906 479.15625 C 96.789062 470.980469 74.140625 451.542969 62.832031 424.027344 C 42.632812 374.929688 66.0625 318.445312 115.03125 298.105469 C 164.015625 277.769531 221 302.886719 240.472656 350.226562 C 251.929688 378.15625 249.328125 408.457031 235.882812 433.164062 L 235.867188 433.175781 Z M 235.871094 433.175781 " fill-opacity="1" fill-rule="nonzero"/><path fill="#ffffff" d="M 170.234375 433.175781 L 164.703125 433.175781 L 155.160156 409.929688 L 137.085938 402.957031 L 119.480469 360.144531 C 118.855469 360.242188 118.226562 360.285156 117.59375 360.277344 C 116.964844 360.269531 116.335938 360.210938 115.714844 360.097656 C 115.09375 359.984375 114.484375 359.820312 113.890625 359.605469 C 113.296875 359.390625 112.722656 359.128906 112.175781 358.816406 C 111.625 358.507812 111.101562 358.152344 110.613281 357.753906 C 110.121094 357.355469 109.664062 356.921875 109.246094 356.449219 C 108.828125 355.972656 108.453125 355.46875 108.117188 354.929688 C 107.785156 354.394531 107.496094 353.832031 107.257812 353.25 C 106.972656 352.558594 106.761719 351.84375 106.617188 351.113281 C 106.476562 350.378906 106.402344 349.640625 106.40625 348.894531 C 106.40625 348.148438 106.480469 347.410156 106.628906 346.675781 C 106.773438 345.945312 106.992188 345.234375 107.277344 344.542969 C 107.5625 343.855469 107.914062 343.199219 108.328125 342.578125 C 108.742188 341.957031 109.210938 341.382812 109.738281 340.855469 C 110.265625 340.328125 110.839844 339.855469 111.460938 339.441406 C 112.078125 339.023438 112.734375 338.671875 113.421875 338.386719 C 114.109375 338.097656 114.816406 337.878906 115.546875 337.730469 C 116.277344 337.585938 117.015625 337.511719 117.761719 337.507812 C 118.503906 337.507812 119.242188 337.578125 119.972656 337.722656 C 120.703125 337.867188 121.414062 338.085938 122.101562 338.371094 C 122.789062 338.65625 123.445312 339.003906 124.0625 339.421875 C 124.683594 339.835938 125.253906 340.308594 125.78125 340.835938 C 126.304688 341.363281 126.773438 341.941406 127.1875 342.5625 C 127.597656 343.183594 127.945312 343.839844 128.226562 344.53125 C 128.472656 345.125 128.667969 345.738281 128.808594 346.367188 C 128.949219 346.996094 129.035156 347.632812 129.070312 348.277344 C 129.105469 348.921875 129.082031 349.566406 129.007812 350.207031 C 128.933594 350.847656 128.804688 351.476562 128.621094 352.09375 C 128.441406 352.714844 128.207031 353.3125 127.921875 353.890625 C 127.640625 354.472656 127.308594 355.023438 126.933594 355.546875 C 126.554688 356.070312 126.136719 356.558594 125.675781 357.007812 C 125.21875 357.460938 124.722656 357.871094 124.195312 358.238281 L 131.015625 374.8125 L 138.0625 361.664062 L 127.875 336.929688 C 127.238281 337.035156 126.59375 337.085938 125.949219 337.085938 C 125.300781 337.082031 124.660156 337.023438 124.023438 336.914062 C 123.386719 336.800781 122.761719 336.636719 122.152344 336.421875 C 121.542969 336.207031 120.953125 335.941406 120.390625 335.625 C 119.824219 335.308594 119.289062 334.949219 118.785156 334.546875 C 118.277344 334.140625 117.8125 333.695312 117.382812 333.210938 C 116.953125 332.726562 116.566406 332.210938 116.222656 331.664062 C 115.878906 331.113281 115.582031 330.539062 115.335938 329.941406 C 115.042969 329.234375 114.824219 328.503906 114.675781 327.75 C 114.527344 326.996094 114.457031 326.238281 114.460938 325.472656 C 114.464844 324.703125 114.542969 323.945312 114.695312 323.195312 C 114.847656 322.441406 115.074219 321.714844 115.371094 321.007812 C 115.671875 320.300781 116.035156 319.632812 116.464844 319 C 116.898438 318.363281 117.386719 317.78125 117.933594 317.242188 C 118.480469 316.707031 119.074219 316.230469 119.714844 315.808594 C 120.355469 315.390625 121.035156 315.039062 121.746094 314.757812 C 127.683594 312.386719 134.664062 315.523438 136.867188 321.542969 C 137.082031 322.140625 137.246094 322.75 137.363281 323.375 C 137.480469 324 137.542969 324.628906 137.554688 325.265625 C 137.570312 325.898438 137.53125 326.53125 137.4375 327.160156 C 137.347656 327.789062 137.207031 328.40625 137.015625 329.011719 C 136.824219 329.617188 136.585938 330.203125 136.296875 330.769531 C 136.007812 331.335938 135.675781 331.875 135.300781 332.386719 C 134.925781 332.898438 134.511719 333.375 134.058594 333.820312 C 133.601562 334.261719 133.117188 334.667969 132.59375 335.03125 L 143.671875 361.96875 L 133.617188 380.769531 L 133.371094 380.636719 L 140.925781 398.992188 L 152.464844 403.433594 L 151.097656 400.105469 L 158.296875 383.824219 L 143.671875 348.242188 L 150.058594 330.738281 C 147.921875 329.40625 146.375 327.570312 145.421875 325.238281 C 145.128906 324.519531 144.910156 323.777344 144.761719 323.019531 C 144.613281 322.257812 144.539062 321.488281 144.542969 320.714844 C 144.542969 319.9375 144.621094 319.167969 144.773438 318.410156 C 144.925781 317.648438 145.152344 316.910156 145.449219 316.195312 C 145.746094 315.476562 146.109375 314.796875 146.539062 314.152344 C 146.972656 313.507812 147.460938 312.910156 148.007812 312.363281 C 148.554688 311.816406 149.152344 311.324219 149.792969 310.894531 C 150.4375 310.460938 151.117188 310.097656 151.832031 309.796875 C 152.546875 309.5 153.28125 309.273438 154.039062 309.121094 C 154.800781 308.96875 155.566406 308.894531 156.339844 308.894531 C 157.113281 308.894531 157.878906 308.96875 158.636719 309.121094 C 159.398438 309.269531 160.132812 309.496094 160.847656 309.792969 C 161.5625 310.089844 162.242188 310.453125 162.882812 310.886719 C 163.527344 311.316406 164.121094 311.808594 164.664062 312.359375 C 165.210938 312.90625 165.699219 313.503906 166.125 314.152344 C 166.550781 314.796875 166.914062 315.476562 167.207031 316.195312 C 167.5 316.914062 167.722656 317.652344 167.871094 318.414062 C 168.019531 319.175781 168.09375 319.945312 168.089844 320.71875 C 168.089844 321.496094 168.011719 322.261719 167.859375 323.023438 C 167.707031 323.785156 167.480469 324.523438 167.183594 325.238281 C 166.886719 325.957031 166.523438 326.636719 166.089844 327.28125 C 165.660156 327.925781 165.171875 328.523438 164.625 329.070312 C 164.074219 329.617188 163.480469 330.109375 162.835938 330.539062 C 162.191406 330.972656 161.511719 331.335938 160.796875 331.632812 C 158.855469 332.449219 156.816406 332.691406 154.835938 332.449219 L 149.132812 348.128906 L 163.839844 383.90625 L 156.640625 400.1875 L 170.21875 433.207031 Z M 170.234375 433.175781 " fill-opacity="1" fill-rule="nonzero"/><g clip-path="url(#2683dc37bb)"><path fill="#8fc265" d="M 246.753906 433.175781 L 241.6875 433.175781 C 254.128906 407.964844 256.105469 377.707031 244.570312 349.617188 C 223.363281 298.023438 164.210938 273.429688 112.738281 294.820312 C 61.25 316.210938 37.1875 376.960938 57.851562 427.175781 C 69.882812 456.441406 94.101562 476.996094 122.199219 485.441406 L 121.535156 490.039062 C 92.007812 481.414062 66.355469 459.976562 53.574219 428.957031 C 31.390625 375.011719 57.140625 312.921875 110.972656 290.554688 C 164.800781 268.1875 226.648438 293.898438 248.832031 347.84375 C 260.554688 376.371094 258.898438 407.183594 246.757812 433.179688 Z M 246.753906 433.175781 " fill-opacity="1" fill-rule="nonzero"/></g><path fill="#ffffff" d="M 184.625 480.242188 L 173.675781 494.097656 L 130.699219 494.097656 L 138.632812 440.21875 L 190.28125 440.21875 L 179.273438 454.230469 L 150.382812 454.230469 L 149.445312 460.679688 L 184.738281 460.679688 L 175.128906 472.917969 L 147.644531 472.917969 L 146.574219 480.242188 L 184.628906 480.242188 Z M 238.40625 480.242188 L 227.394531 494.097656 L 187.957031 494.097656 L 195.886719 440.21875 L 209.644531 440.21875 L 203.777344 480.242188 L 238.421875 480.242188 Z M 295.535156 480.242188 L 284.585938 494.097656 L 241.609375 494.097656 L 249.542969 440.21875 L 301.203125 440.21875 L 290.195312 454.230469 L 261.304688 454.230469 L 260.363281 460.679688 L 295.660156 460.679688 L 286.054688 472.914062 L 258.566406 472.914062 L 257.5 480.238281 L 295.539062 480.238281 Z M 357.667969 480.242188 L 346.78125 494.097656 L 324.359375 494.097656 C 310.417969 494.097656 301.140625 483.953125 301.140625 470.34375 C 301.140625 452.617188 315.148438 440.21875 332.25 440.21875 L 363.542969 440.21875 L 352.597656 454.230469 L 330.175781 454.230469 C 321.96875 454.230469 315.023438 460.597656 315.023438 469.125 C 315.023438 475.8125 319.628906 480.242188 326.371094 480.242188 Z M 424.527344 440.214844 L 413.457031 454.234375 L 397.566406 454.234375 L 391.699219 494.097656 L 377.886719 494.097656 L 383.683594 454.230469 L 362.730469 454.230469 L 373.808594 440.21875 L 424.527344 440.21875 Z M 480.320312 494.097656 L 461.835938 494.097656 L 453.964844 479.847656 L 432.734375 479.847656 L 430.667969 494.097656 L 416.847656 494.097656 L 420.847656 466.550781 L 459.699219 466.550781 C 464.304688 466.550781 468.304688 463.894531 468.304688 459.542969 C 468.304688 455.988281 465.769531 454.230469 461.5 454.230469 L 422.664062 454.230469 L 433.738281 440.21875 L 462.4375 440.21875 C 471.777344 440.21875 482.855469 443.671875 482.855469 456.566406 C 482.855469 466.308594 477.054688 474.53125 468.449219 476.546875 C 469.722656 477.925781 471.125 479.847656 473.578125 483.636719 L 480.320312 494.117188 Z M 552.601562 462.117188 C 552.601562 484.273438 540.457031 494.980469 515.421875 494.980469 C 496.125 494.980469 486.390625 487.730469 486.390625 472.101562 C 486.390625 449.945312 498.53125 439.320312 523.566406 439.320312 C 542.847656 439.320312 552.601562 446.488281 552.601562 462.117188 Z M 538.722656 463.816406 C 538.722656 455.109375 533.65625 453.335938 521.511719 453.335938 C 503.550781 453.335938 500.285156 456.628906 500.285156 470.484375 C 500.285156 479.191406 505.417969 480.964844 517.433594 480.964844 C 535.390625 480.964844 538.722656 477.589844 538.722656 463.816406 Z M 586.429688 461.636719 L 578.160156 472.019531 L 555.867188 472.019531 L 564.136719 461.636719 Z M 586.429688 461.636719 " fill-opacity="1" fill-rule="nonzero"/><g clip-path="url(#5035637341)"><path fill="#42824f" d="M 645.234375 440.214844 L 634.15625 454.234375 L 618.269531 454.234375 L 612.40625 494.097656 L 598.589844 494.097656 L 604.390625 454.230469 L 583.433594 454.230469 L 594.511719 440.21875 L 645.234375 440.21875 Z M 696.082031 480.242188 L 685.132812 494.097656 L 642.160156 494.097656 L 650.09375 440.21875 L 701.757812 440.21875 L 690.742188 454.230469 L 661.851562 454.230469 L 660.914062 460.679688 L 696.207031 460.679688 L 686.597656 472.917969 L 659.097656 472.917969 L 658.027344 480.242188 Z M 758.214844 480.242188 L 747.332031 494.097656 L 724.90625 494.097656 C 710.964844 494.097656 701.691406 483.953125 701.691406 470.34375 C 701.691406 452.617188 715.699219 440.21875 732.796875 440.21875 L 764.09375 440.21875 L 753.144531 454.230469 L 730.726562 454.230469 C 722.519531 454.230469 715.570312 460.597656 715.570312 469.125 C 715.570312 475.8125 720.175781 480.242188 726.917969 480.242188 Z M 758.214844 480.242188 " fill-opacity="1" fill-rule="nonzero"/></g><path fill="#8fc265" d="M 741.785156 502.945312 L 739.011719 506.480469 L 419.859375 506.480469 C 419.761719 506.976562 419.617188 507.457031 419.433594 507.929688 C 419.253906 508.398438 419.03125 508.851562 418.769531 509.28125 C 418.511719 509.714844 418.214844 510.121094 417.886719 510.503906 C 417.558594 510.886719 417.195312 511.238281 416.808594 511.558594 C 416.417969 511.878906 416.003906 512.164062 415.566406 512.414062 C 415.125 512.664062 414.671875 512.871094 414.195312 513.042969 C 413.722656 513.214844 413.234375 513.34375 412.738281 513.433594 C 412.242188 513.519531 411.742188 513.566406 411.238281 513.566406 C 410.660156 513.566406 410.085938 513.507812 409.519531 513.394531 C 408.953125 513.28125 408.402344 513.109375 407.867188 512.886719 C 407.332031 512.664062 406.828125 512.390625 406.347656 512.066406 C 405.867188 511.746094 405.421875 511.378906 405.011719 510.96875 C 404.605469 510.558594 404.242188 510.109375 403.921875 509.628906 C 403.601562 509.144531 403.328125 508.636719 403.109375 508.101562 C 402.890625 507.566406 402.722656 507.011719 402.609375 506.445312 C 402.5 505.875 402.445312 505.300781 402.445312 504.722656 C 402.445312 504.144531 402.5 503.570312 402.609375 503 C 402.722656 502.433594 402.890625 501.878906 403.109375 501.34375 C 403.328125 500.808594 403.601562 500.300781 403.921875 499.816406 C 404.242188 499.335938 404.605469 498.886719 405.011719 498.476562 C 405.421875 498.066406 405.867188 497.699219 406.347656 497.378906 C 406.828125 497.054688 407.332031 496.78125 407.867188 496.558594 C 408.402344 496.335938 408.953125 496.167969 409.519531 496.050781 C 410.085938 495.9375 410.660156 495.878906 411.238281 495.878906 C 415.492188 495.878906 419.03125 498.914062 419.859375 502.949219 L 741.785156 502.949219 Z M 741.785156 502.945312 " fill-opacity="1" fill-rule="nonzero"/><g clip-path="url(#906a8adb68)"><path fill="#42824f" d="M 730.679688 517.105469 L 727.902344 520.640625 L 543.058594 520.640625 C 542.957031 521.136719 542.8125 521.617188 542.628906 522.089844 C 542.445312 522.558594 542.226562 523.011719 541.964844 523.445312 C 541.703125 523.878906 541.410156 524.285156 541.078125 524.667969 C 540.746094 525.050781 540.386719 525.402344 539.996094 525.722656 C 539.605469 526.042969 539.191406 526.328125 538.75 526.574219 C 538.3125 526.824219 537.855469 527.035156 537.378906 527.207031 C 536.90625 527.378906 536.417969 527.507812 535.921875 527.59375 C 535.425781 527.679688 534.921875 527.726562 534.417969 527.726562 C 533.839844 527.726562 533.265625 527.667969 532.699219 527.550781 C 532.132812 527.4375 531.582031 527.269531 531.046875 527.042969 C 530.515625 526.820312 530.007812 526.546875 529.527344 526.226562 C 529.046875 525.902344 528.601562 525.535156 528.195312 525.125 C 527.785156 524.714844 527.421875 524.269531 527.101562 523.785156 C 526.78125 523.304688 526.507812 522.792969 526.289062 522.257812 C 526.066406 521.722656 525.902344 521.171875 525.789062 520.601562 C 525.675781 520.035156 525.621094 519.460938 525.621094 518.882812 C 525.621094 514 529.578125 510.03125 534.417969 510.03125 C 538.671875 510.03125 542.226562 513.074219 543.054688 517.105469 Z M 730.679688 517.105469 " fill-opacity="1" fill-rule="nonzero"/></g></svg>